<svg xmlns="http://www.w3.org/2000/svg" height="511pt" version="1.1" viewBox="-38 1 511 511.99976" width="511pt">
<g id="surface1">
<path d="M 435.988281 138.914062 L 435.972656 138.519531 C 435.75 133.601562 435.601562 128.394531 435.511719 122.605469 C 435.09375 94.375 412.652344 71.023438 384.417969 69.449219 C 325.550781 66.160156 280.011719 46.964844 241.101562 9.042969 L 240.769531 8.726562 C 228.074219 -2.910156 208.929688 -2.90625 196.242188 8.722656 L 195.90625 9.042969 C 156.996094 46.964844 111.457031 66.160156 52.589844 69.449219 C 24.355469 71.023438 1.914062 94.375 1.496094 122.609375 C 1.410156 128.363281 1.257812 133.566406 1.035156 138.519531 L 1.011719 139.445312 C -0.132812 199.472656 -1.554688 274.175781 23.4375 341.988281 C 37.179688 379.277344 57.988281 411.691406 85.289062 438.332031 C 116.386719 468.675781 157.113281 492.765625 206.347656 509.933594 C 207.949219 510.492188 209.609375 510.945312 211.300781 511.28125 C 213.691406 511.761719 216.097656 512 218.503906 512 C 220.910156 512 223.320312 511.761719 225.707031 511.28125 C 227.398438 510.945312 229.070312 510.488281 230.6875 509.925781 C 279.855469 492.730469 320.539062 468.628906 351.605469 438.289062 C 378.894531 411.636719 399.707031 379.210938 413.460938 341.917969 C 438.546875 273.902344 437.128906 199.054688 435.988281 138.914062 Z M 385.273438 331.519531 C 358.914062 402.992188 305.105469 452.070312 220.777344 481.558594 C 220.476562 481.664062 220.152344 481.753906 219.820312 481.820312 C 218.945312 481.996094 218.058594 481.996094 217.179688 481.816406 C 216.847656 481.753906 216.53125 481.664062 216.234375 481.5625 C 131.8125 452.125 77.96875 403.070312 51.625 331.597656 C 28.589844 269.09375 29.898438 200.519531 31.050781 140.015625 L 31.054688 139.683594 C 31.289062 134.480469 31.449219 129.039062 31.535156 123.050781 C 31.722656 110.515625 41.707031 100.148438 54.265625 99.445312 C 87.578125 97.585938 116.84375 91.148438 143.734375 79.765625 C 170.585938 68.398438 194.441406 52.375 216.644531 30.78125 C 217.769531 29.828125 219.238281 29.824219 220.363281 30.78125 C 242.570312 52.375 266.421875 68.402344 293.273438 79.765625 C 320.164062 91.148438 349.429688 97.585938 382.746094 99.445312 C 395.304688 100.148438 405.289062 110.515625 405.472656 123.054688 C 405.5625 129.074219 405.71875 134.515625 405.953125 139.679688 C 407.097656 200.253906 408.375 268.882812 385.273438 331.519531 Z M 385.273438 331.519531 " style=" stroke:none;fill-rule:nonzero;fill:rgb(0%,0%,0%);fill-opacity:1;" />
<path d="M 218.496094 149.601562 C 180.996094 149.601562 150.492188 180.109375 150.492188 217.605469 C 150.492188 239.707031 161.105469 260.089844 178.710938 272.769531 L 178.363281 321.339844 L 178.363281 321.445312 C 178.363281 343.460938 196.273438 361.375 218.289062 361.375 C 240.285156 361.375 258.183594 343.492188 258.21875 321.503906 L 258.570312 272.554688 C 275.996094 259.855469 286.5 239.550781 286.5 217.605469 C 286.5 180.109375 255.992188 149.601562 218.496094 149.601562 Z M 228.171875 321.449219 C 228.171875 326.898438 223.738281 331.332031 218.289062 331.332031 C 212.855469 331.332031 208.429688 326.917969 208.40625 321.488281 L 208.8125 265.601562 C 209.230469 259.832031 206.28125 254.089844 200.835938 251.21875 C 188.3125 244.621094 180.535156 231.742188 180.535156 217.605469 C 180.535156 196.675781 197.5625 179.648438 218.496094 179.648438 C 239.425781 179.648438 256.453125 196.675781 256.453125 217.605469 C 256.453125 231.644531 248.753906 244.480469 236.359375 251.109375 C 230.679688 254.148438 227.761719 260.316406 228.570312 266.351562 L 228.171875 321.339844 Z M 228.171875 321.449219 " style=" stroke:none;fill-rule:nonzero;fill:rgb(0%,0%,0%);fill-opacity:1;" />
</g>
</svg>